# xmcd
# 
# Track frame offsets:
#     150
#     17072
#     35235
#     52332
#     67910
#     87242
#     103329
#     121632
#     140922
#     157850
#     176670
#     194380
#     209310
#     226505
#     239170
#     253352
#     273185
#     290317
# 
# Disc length: 4095
# 
# Revision: 0
# Processed by: cddbd v1.5.1PL2 Copyright (c) Steve Scherf et al.
# Submitted via: BonkEnc v1.0beta3
# 
DISCID=0c0ffd12
DTITLE=Kenny Rogers - The Best Collection
DYEAR=1900
DGENRE=Country
TTITLE0=You Decorated My Life
TTITLE1=Lady
TTITLE2=We're GotTonight (with Sheena Easton)
TTITLE3=But You Know I Love You
TTITLE4=Sweet Music Man
TTITLE5=Crazy
TTITLE6=I Will Always Love You
TTITLE7=What About Me?
TTITLE8=Love Will Turn You Around
TTITLE9=She Believe In Me
TTITLE10=This Woman
TTITLE11=Love The World Away
TTITLE12=Buried Treasure
TTITLE13=Love Or Something Like It
TTITLE14=Me And You And A Dog Named Boo
TTITLE15=How Can I Tell Her
TTITLE16=Stoney
TTITLE17=I Love You To Want Me
EXTD=
EXTT0=
EXTT1=
EXTT2=
EXTT3=
EXTT4=
EXTT5=
EXTT6=
EXTT7=
EXTT8=
EXTT9=
EXTT10=
EXTT11=
EXTT12=
EXTT13=
EXTT14=
EXTT15=
EXTT16=
EXTT17=
PLAYORDER=
